<svg viewBox="0 0 39 52" fill="currentColor" stroke="currentColor" xmlns="http://www.w3.org/2000/svg">
<path d="M23.1028 10.0757C23.1028 10.0757 24.6456 9.86475 25.3497 9.36933C26.0228 8.89576 26.2204 8.46162 26.4732 7.77993C26.7924 6.91918 26.4732 5.48412 26.4732 5.48412H21.53C21.53 5.48412 20.686 5.16546 20.6312 4.77771L21.53 3.89471C21.53 3.89471 21.209 2.97932 20.6312 2.6585C19.8429 2.22079 19.1198 2.73608 18.1596 2.6585C16.9951 2.56441 15.2387 2.1287 15.2387 2.1287C15.2387 2.1287 14.9658 1.15168 14.3399 0.892495C13.7965 0.667458 13.2164 0.892502 12.7671 0.892495C12.3177 0.892489 11.2984 1.03882 10.9695 1.5989C10.7489 1.97461 10.9695 2.6585 10.9695 2.6585C10.9695 2.6585 9.77931 3.90507 9.17201 4.77771C8.22574 6.13743 7.9649 7.00759 7.37449 8.48633C6.69902 10.1781 6.52581 11.1722 6.02635 12.9014C5.15387 15.9219 4.71571 17.6253 4.00414 20.6718C3.42588 23.1475 3.08355 24.5349 2.656 27.0294C2.33775 28.8862 1.82943 29.9279 1.98192 31.7976C2.07882 32.9857 2.656 34.7998 2.656 34.7998C2.656 34.7998 1.21484 35.4844 0.858473 36.2127C0.543482 36.8563 0.397568 37.3918 0.858473 37.9787C1.1536 38.3544 1.43846 38.573 1.98192 38.6851C2.81785 38.8574 4.00414 37.9787 4.00414 37.9787L6.02635 40.0979C6.02635 40.0979 4.38435 40.9855 4.00414 41.8639C3.69326 42.5821 4.00414 43.0478 4.00414 43.8065C4.00414 44.7031 3.72238 45.2335 4.00414 46.1023C4.36486 47.2146 5.21521 47.6202 6.02635 48.5747C6.79695 49.4815 8.04856 50.8705 8.04856 50.8705L13.8905 51.0471C13.8905 51.0471 14.4442 50.3063 14.3399 49.8109C14.198 49.1373 13.3813 49.0575 12.7671 48.5747L12.093 48.0449C12.093 48.0449 13.5547 46.921 14.3399 46.1023C15.1462 45.2617 15.5816 44.7643 16.1374 43.8065C16.4485 43.2704 16.6502 42.9691 16.8115 42.3937C17.0569 41.5181 16.8115 40.0979 16.8115 40.0979L18.1596 41.1575C18.9493 41.7782 19.525 42.037 20.1818 42.7469C20.8743 43.4952 21.345 43.9523 21.53 44.8661C21.6265 45.3429 21.53 45.6195 21.53 46.1023C21.53 46.8609 21.7745 47.311 21.53 48.0449C21.4103 48.4042 21.0806 48.5565 21.0806 48.9279C21.0806 49.2993 21.2802 49.4956 21.53 49.8109C21.9576 50.3507 23.1028 50.8705 23.1028 50.8705H26.4732H29.1695C29.1695 50.8705 29.313 50.209 29.1695 49.8109C28.9488 49.1992 27.8213 48.5747 27.8213 48.5747C27.8213 48.5747 27.2948 48.8035 27.8213 48.0449L29.1695 46.1023C29.1695 46.1023 30.9504 43.9554 31.4164 42.3937C31.9172 40.7151 31.9633 39.6484 31.4164 37.9787C30.6761 35.7187 27.7175 35.3241 27.1472 33.0338C26.7062 31.2624 27.8213 28.4422 27.8213 28.4422C27.8213 28.4422 29.6539 28.1208 30.7423 27.7358C32.1848 27.2256 33.1474 26.8664 34.1126 25.9698L36.5842 23.674C36.5842 23.674 38.7744 22.3873 38.8311 21.2016C38.8991 19.7808 35.9102 18.376 35.9102 18.376C35.9102 18.376 33.66 19.4776 32.0904 19.9654C30.9805 20.3103 30.3626 20.6936 29.1695 20.6718C28.0598 20.6515 27.3763 20.4724 26.4732 19.9654C25.0362 19.1587 25.0914 18.08 24.451 16.7866C23.7253 15.321 23.8309 14.3662 23.1028 12.9014C22.7883 12.2687 22.117 11.9877 22.2041 11.3119C22.2753 10.7587 23.1028 10.0757 23.1028 10.0757Z"/>
</svg>
